<svg xmlns="http://www.w3.org/2000/svg" width="176" height="18" viewBox="0 0 176 18">
    <g fill="none" fill-rule="evenodd">
        <path d="M0-6h188v30H0z"/>
        <path fill="#C1C1C1" d="M0 9c0-1.253.227-2.427.68-3.523A8.825 8.825 0 0 1 2.57 2.609 8.783 8.783 0 0 1 5.415.692C6.503.231 7.69 0 8.975 0a8.29 8.29 0 0 1 2.04.26c.684.173 1.348.44 1.99.803V5.91a6.58 6.58 0 0 0-1.718-.989c-.602-.23-1.282-.346-2.04-.346-.676 0-1.285.116-1.83.346-.543.231-1.009.544-1.396.94a4.177 4.177 0 0 0-.903 1.41A4.68 4.68 0 0 0 4.797 9c0 .61.107 1.183.321 1.718.214.536.515 1.006.903 1.41.387.404.853.72 1.397.952.544.23 1.153.346 1.83.346.741 0 1.409-.111 2.002-.334a8.149 8.149 0 0 0 1.78-.952v4.822c-.742.395-1.463.667-2.163.815-.7.149-1.34.223-1.916.223-1.303 0-2.502-.227-3.598-.68a8.505 8.505 0 0 1-2.831-1.88 8.581 8.581 0 0 1-1.854-2.842C.223 11.5 0 10.302 0 9zM22.797.346v12.931h5.934v4.377H18.148V.346h4.649zm15.23 0v17.308H33.33V.346h4.697zm5.638 0h10.533V4.55h-5.885v2.374h5.291v4.055h-5.29v2.473h5.933v4.203H43.665V.346zm31.55 0v17.308h-4.699l-6.7-9.816v9.816H59.29V.346h4.747l6.652 9.915V.346h4.524zm4.475 0h13.203v4.352h-4.278v12.956h-4.648V4.698H79.69V.346zm29.126 0v12.931h5.934v4.377h-10.582V.346h4.648zM133.986 9a8.717 8.717 0 0 1-.717 3.523 8.88 8.88 0 0 1-1.965 2.856 9.39 9.39 0 0 1-2.918 1.916 9.09 9.09 0 0 1-3.573.705 9.09 9.09 0 0 1-3.573-.705 9.39 9.39 0 0 1-2.917-1.916 8.88 8.88 0 0 1-1.966-2.856A8.717 8.717 0 0 1 115.64 9c0-1.253.24-2.427.717-3.523a8.88 8.88 0 0 1 1.966-2.856A9.39 9.39 0 0 1 121.24.705 9.09 9.09 0 0 1 124.813 0c1.27 0 2.46.235 3.573.705a9.39 9.39 0 0 1 2.918 1.916 8.88 8.88 0 0 1 1.965 2.856A8.717 8.717 0 0 1 133.986 9zm-4.772 0c0-.626-.115-1.212-.346-1.755a4.547 4.547 0 0 0-.94-1.422 4.334 4.334 0 0 0-3.115-1.298 4.334 4.334 0 0 0-3.14 1.298 4.376 4.376 0 0 0-.927 1.422A4.591 4.591 0 0 0 120.412 9c0 .626.111 1.212.334 1.755.222.544.531 1.018.927 1.422a4.334 4.334 0 0 0 3.14 1.298 4.334 4.334 0 0 0 3.115-1.298c.396-.404.71-.878.94-1.422.23-.543.346-1.129.346-1.755zm20.25-2.423a3.998 3.998 0 0 0-1.57-1.632c-.667-.38-1.438-.569-2.312-.569-.626 0-1.211.12-1.755.359a4.411 4.411 0 0 0-1.422.989A4.694 4.694 0 0 0 141.107 9c0 .643.116 1.253.346 1.83.231.577.552 1.075.965 1.496.412.42.886.754 1.421 1 .536.248 1.117.372 1.743.372.89 0 1.682-.202 2.374-.606.692-.404 1.154-.935 1.385-1.595h-4.253V7.714h9.272v1.731a8.4 8.4 0 0 1-.68 3.375 8.475 8.475 0 0 1-1.854 2.72 8.533 8.533 0 0 1-2.782 1.805c-1.071.437-2.225.655-3.462.655-1.285 0-2.484-.235-3.597-.705a9.132 9.132 0 0 1-2.905-1.928 9.126 9.126 0 0 1-1.954-2.868A8.657 8.657 0 0 1 136.41 9c0-1.236.243-2.398.73-3.486a9.236 9.236 0 0 1 1.978-2.856 9.457 9.457 0 0 1 2.917-1.941A8.893 8.893 0 0 1 145.582 0c.89 0 1.748.103 2.572.31a9.428 9.428 0 0 1 2.287.89c.7.387 1.327.865 1.88 1.433a7.9 7.9 0 0 1 1.371 1.916l-4.228 2.028zM175.03 9a8.717 8.717 0 0 1-.717 3.523 8.88 8.88 0 0 1-1.965 2.856 9.39 9.39 0 0 1-2.918 1.916 9.09 9.09 0 0 1-3.573.705 9.09 9.09 0 0 1-3.573-.705 9.39 9.39 0 0 1-2.917-1.916 8.88 8.88 0 0 1-1.966-2.856A8.717 8.717 0 0 1 156.684 9c0-1.253.24-2.427.717-3.523a8.88 8.88 0 0 1 1.966-2.856 9.39 9.39 0 0 1 2.917-1.916A9.09 9.09 0 0 1 165.857 0c1.27 0 2.46.235 3.573.705a9.39 9.39 0 0 1 2.918 1.916 8.88 8.88 0 0 1 1.965 2.856A8.717 8.717 0 0 1 175.03 9zm-4.772 0c0-.626-.115-1.212-.346-1.755a4.547 4.547 0 0 0-.94-1.422 4.334 4.334 0 0 0-3.115-1.298 4.334 4.334 0 0 0-3.14 1.298 4.376 4.376 0 0 0-.927 1.422A4.591 4.591 0 0 0 161.456 9c0 .626.111 1.212.334 1.755.222.544.531 1.018.927 1.422a4.334 4.334 0 0 0 3.14 1.298 4.334 4.334 0 0 0 3.115-1.298c.396-.404.71-.878.94-1.422.23-.543.346-1.129.346-1.755z"/>
    </g>
</svg>
