<svg xmlns="http://www.w3.org/2000/svg" width="108" height="18" viewBox="0 0 108 18">
    <g fill="none" fill-rule="evenodd">
        <path d="M0-6h120v30H0z"/>
        <path fill="#00BBAD" d="M0 17.672V0h8.356c2.702 0 4.57.707 5.756 1.919 1.035 1.01 1.565 2.373 1.565 4.115v.05c0 2.701-1.439 4.494-3.635 5.428l4.216 6.16h-5.655l-3.56-5.352H4.898v5.352H0zm4.898-9.19h3.231c1.666 0 2.626-.807 2.626-2.095v-.05c0-1.389-1.01-2.096-2.651-2.096H4.898v4.241zM25.296 18c-4.368 0-7.523-3.206-7.523-7.094v-.05c0-3.888 3.18-7.145 7.573-7.145 4.368 0 7.524 3.206 7.524 7.094v.05c0 3.888-3.181 7.145-7.574 7.145zm.05-4.065c1.742 0 2.853-1.388 2.853-3.029v-.05c0-1.667-1.212-3.08-2.903-3.08-1.742 0-2.853 1.388-2.853 3.029v.05c0 1.667 1.212 3.08 2.903 3.08zM42.564 18c-4.368 0-7.523-3.206-7.523-7.094v-.05c0-3.888 3.18-7.145 7.573-7.145 4.368 0 7.523 3.206 7.523 7.094v.05c0 3.888-3.18 7.145-7.573 7.145zm.05-4.065c1.742 0 2.853-1.388 2.853-3.029v-.05c0-1.667-1.212-3.08-2.903-3.08-1.742 0-2.853 1.388-2.853 3.029v.05c0 1.667 1.212 3.08 2.903 3.08zm10.25 3.737V4.014h4.797v1.868c.883-1.136 2.145-2.17 4.064-2.17 1.818 0 3.206.807 3.938 2.22 1.187-1.363 2.575-2.22 4.57-2.22 2.903 0 4.67 1.817 4.67 4.998v8.962h-4.796V10.25c0-1.49-.733-2.272-1.869-2.272-1.136 0-1.969.782-1.969 2.272v7.422h-4.796V10.25c0-1.49-.732-2.272-1.869-2.272-1.136 0-1.943.782-1.943 2.272v7.422h-4.797zM84.85 18c-4.292 0-7.321-2.853-7.321-7.094v-.05c0-3.99 2.852-7.145 6.892-7.145 4.72 0 6.892 3.459 6.892 7.473 0 .303 0 .656-.025.984h-9.14c.38 1.49 1.465 2.247 2.954 2.247 1.136 0 2.045-.429 3.03-1.388l2.65 2.196C89.47 16.889 87.577 18 84.85 18zm-2.777-8.28h4.746c-.177-1.515-1.06-2.475-2.373-2.475-1.262 0-2.12.985-2.373 2.474zm10.906 7.952l4.595-6.892-4.52-6.766h5.176l2.02 3.358 2.02-3.358h5.074l-4.494 6.74 4.595 6.918h-5.15l-2.121-3.51-2.146 3.51H92.98z"/>
    </g>
</svg>
